<svg xmlns="http://www.w3.org/2000/svg" version="1.1" xmlns:xlink="http://www.w3.org/1999/xlink" xmlns:svgjs="http://svgjs.dev/svgjs" width="1000" height="1000" viewBox="0 0 1000 1000"><rect width="1000" height="1000" fill="#0718c4"></rect><g transform="matrix(0.7,0,0,0.7,149.57575757575756,282.1265587044535)"><svg viewBox="0 0 396 247" data-background-color="#0718c4" preserveAspectRatio="xMidYMid meet" height="623" width="1000" xmlns="http://www.w3.org/2000/svg" xmlns:xlink="http://www.w3.org/1999/xlink"><g id="tight-bounds" transform="matrix(1,0,0,1,0.2400000000000091,-0.09999999999999432)"><svg viewBox="0 0 395.52 247.2" height="247.2" width="395.52"><g><svg></svg></g><g><svg viewBox="0 0 395.52 247.2" height="247.2" width="395.52"><g transform="matrix(1,0,0,1,136.50404542936286,47.215199999999996)"><svg viewBox="0 0 122.51190914127424 152.7696" height="152.7696" width="122.51190914127424"><g><svg viewBox="0 0 122.51190914127424 152.7696" height="152.7696" width="122.51190914127424"><g><svg viewBox="0 0 122.51190914127424 152.7696" height="152.7696" width="122.51190914127424"><g><svg viewBox="0 0 122.51190914127424 152.7696" height="152.7696" width="122.51190914127424"><g><svg viewBox="0 0 122.51190914127424 152.7696" height="152.7696" width="122.51190914127424"><g><svg viewBox="0 0 122.51190914127424 152.7696" height="152.7696" width="122.51190914127424"><g transform="matrix(1,0,0,1,0,0)"><svg width="122.51190914127424" viewBox="2.75 -35.5 28.950000762939453 36.099998474121094" height="152.7696" data-palette-color="#8dbdff"><path d="M26.75 0L26.75-5.3 26.55-5.3Q26-2.75 23.58-1.07 21.15 0.6 17.15 0.6L17.15 0.6Q14.05 0.6 11.4-0.58 8.75-1.75 6.83-4.03 4.9-6.3 3.83-9.68 2.75-13.05 2.75-17.45L2.75-17.45Q2.75-21.8 3.85-25.18 4.95-28.55 6.95-30.85 8.95-33.15 11.75-34.33 14.55-35.5 18-35.5L18-35.5Q22.7-35.5 25.95-33.43 29.2-31.35 31-27.65L31-27.65 26.4-24.95Q25.4-27.4 23.3-28.93 21.2-30.45 18-30.45L18-30.45Q13.85-30.45 11.33-27.8 8.8-25.15 8.8-20.3L8.8-20.3 8.8-14.6Q8.8-9.75 11.33-7.1 13.85-4.45 18-4.45L18-4.45Q19.65-4.45 21.15-4.88 22.65-5.3 23.78-6.13 24.9-6.95 25.58-8.18 26.25-9.4 26.25-11.05L26.25-11.05 26.25-13.75 19.05-13.75 19.05-18.6 31.7-18.6 31.7 0 26.75 0Z" opacity="1" transform="matrix(1,0,0,1,0,0)" fill="#8dbdff" class="undefined-text-0" data-fill-palette-color="primary" id="text-0"></path></svg></g></svg></g></svg></g></svg></g></svg></g></svg></g></svg></g><path d="M76.715 41.215L76.715 0 323.915 0 323.915 247.2 76.715 247.2 76.715 205.985 90.492 205.985 90.492 233.423 310.138 233.423 310.138 13.777 90.492 13.777 90.492 41.215Z" fill="#8dbdff" stroke="transparent" data-fill-palette-color="primary"></path></svg></g><defs></defs></svg><rect width="395.52" height="247.2" fill="none" stroke="none" visibility="hidden"></rect></g></svg></g></svg>